<svg width="7" height="12" viewBox="0 0 7 12" fill="none" xmlns="http://www.w3.org/2000/svg">
<path d="M5.98486 11.9033C5.71924 11.9033 5.49512 11.812 5.3125 11.6294L0.340332 6.70703C0.10791 6.48291 0 6.24219 0 5.95166C0 5.66113 0.10791 5.41211 0.332031 5.19629L5.3125 0.273926C5.49512 0.0913086 5.71924 0 5.98486 0C6.51611 0 6.94775 0.42334 6.94775 0.95459C6.94775 1.22021 6.83984 1.46094 6.64893 1.66016L2.28271 5.95996L6.64893 10.2515C6.83984 10.4424 6.94775 10.6831 6.94775 10.9487C6.94775 11.48 6.51611 11.9033 5.98486 11.9033Z" fill="#3C3C43" fill-opacity="0.3"/>
</svg>
