<svg width="12" height="7" viewBox="0 0 12 7" fill="none" xmlns="http://www.w3.org/2000/svg">
<path d="M11.9033 0.962891C11.9033 1.22852 11.812 1.45264 11.6294 1.63525L6.70703 6.60742C6.48291 6.83984 6.24219 6.94775 5.95166 6.94775C5.66113 6.94775 5.41211 6.83984 5.19629 6.61572L0.273926 1.63525C0.0913086 1.45264 0 1.22852 0 0.962891C0 0.431641 0.42334 0 0.95459 0C1.22021 0 1.46094 0.10791 1.66016 0.298828L5.95996 4.66504L10.2515 0.298828C10.4424 0.10791 10.6831 0 10.9487 0C11.48 0 11.9033 0.431641 11.9033 0.962891Z" fill="#939393"/>
</svg>
