<svg width="25" height="24" viewBox="0 0 25 24" fill="none" xmlns="http://www.w3.org/2000/svg">
<path d="M22.0376 12.0001C22.0376 10.4092 21.6408 8.84353 20.883 7.44478C20.1253 6.04603 19.0305 4.85843 17.6979 3.98956C16.3654 3.12069 14.8371 2.59799 13.2515 2.46883C11.6659 2.33967 10.0732 2.60811 8.61756 3.24986C7.16192 3.8916 5.88939 4.88635 4.91523 6.14402C3.94106 7.40168 3.29605 8.88251 3.03863 10.4524C2.7812 12.0222 2.9195 13.6315 3.44098 15.1344C3.96246 16.6373 4.85065 17.9864 6.0251 19.0594L6.1376 19.1532C7.88421 20.7044 10.1391 21.5612 12.4751 21.5612C14.8111 21.5612 17.066 20.7044 18.8126 19.1532L18.9251 19.0594C19.9067 18.1642 20.6905 17.0739 21.2265 15.8583C21.7624 14.6427 22.0387 13.3286 22.0376 12.0001ZM4.0376 12.0001C4.03572 10.6226 4.3711 9.26564 5.01446 8.04766C5.65781 6.82968 6.58958 5.78774 7.72839 5.01283C8.86719 4.23791 10.1784 3.75359 11.5475 3.60215C12.9166 3.45072 14.302 3.63679 15.5826 4.1441C16.8632 4.65141 18.0002 5.46453 18.8942 6.51247C19.7881 7.5604 20.412 8.81127 20.7112 10.1558C21.0103 11.5004 20.9758 12.8978 20.6105 14.2259C20.2453 15.5541 19.5604 16.7726 18.6157 17.7751C17.7297 16.4045 16.4091 15.3711 14.8657 14.8407C15.6362 14.3275 16.2211 13.58 16.5339 12.7088C16.8467 11.8375 16.8709 10.8887 16.6028 10.0026C16.3348 9.11657 15.7887 8.34028 15.0453 7.78856C14.302 7.23683 13.4008 6.93895 12.4751 6.93895C11.5494 6.93895 10.6482 7.23683 9.90487 7.78856C9.16153 8.34028 8.61545 9.11657 8.34738 10.0026C8.0793 10.8887 8.10347 11.8375 8.41629 12.7088C8.72912 13.58 9.31401 14.3275 10.0845 14.8407C8.54105 15.3711 7.22047 16.4045 6.33447 17.7751C4.85786 16.215 4.03579 14.1481 4.0376 12.0001ZM9.2876 11.2501C9.2876 10.6196 9.47454 10.0034 9.82479 9.47917C10.175 8.95499 10.6729 8.54644 11.2553 8.30518C11.8377 8.06393 12.4786 8.00081 13.0969 8.1238C13.7153 8.24679 14.2832 8.55037 14.729 8.99615C15.1748 9.44193 15.4784 10.0099 15.6014 10.6282C15.7243 11.2465 15.6612 11.8874 15.42 12.4699C15.1787 13.0523 14.7702 13.5501 14.246 13.9004C13.7218 14.2506 13.1055 14.4376 12.4751 14.4376C11.6305 14.4351 10.8212 14.0985 10.2239 13.5012C9.62669 12.904 9.29007 12.0947 9.2876 11.2501ZM7.16885 18.5626C7.7203 17.6484 8.49859 16.8921 9.42826 16.3672C10.3579 15.8423 11.4075 15.5665 12.4751 15.5665C13.5427 15.5665 14.5923 15.8423 15.5219 16.3672C16.4516 16.8921 17.2299 17.6484 17.7813 18.5626C16.2789 19.7756 14.4061 20.4373 12.4751 20.4373C10.5441 20.4373 8.67131 19.7756 7.16885 18.5626Z" fill="#191919" stroke="black" stroke-width="0.3"/>
</svg>
