<svg width="28" height="28" viewBox="0 0 28 28" fill="none" xmlns="http://www.w3.org/2000/svg">
<path d="M11.6747 23.4959V16.4303H16.3253V23.4959" stroke="#191919" stroke-width="1.5" stroke-linecap="round" stroke-linejoin="round"/>
<path d="M23.3166 12.6875L14.2953 4.23938C14.2145 4.16498 14.1087 4.12367 13.9989 4.12367C13.8891 4.12367 13.7833 4.16498 13.7025 4.23938L4.68345 12.6875C4.5937 12.768 4.53042 12.8738 4.50192 12.9909C4.47342 13.108 4.48103 13.231 4.52376 13.3438C4.56633 13.457 4.64266 13.5545 4.74242 13.6229C4.84219 13.6914 4.96058 13.7276 5.08157 13.7266H7.00001V23.6578H21.0175L21 13.7244H22.9184C23.0392 13.7256 23.1574 13.6897 23.2571 13.6217C23.3569 13.5536 23.4333 13.4566 23.4763 13.3438V13.3438C23.519 13.231 23.5266 13.108 23.4981 12.9909C23.4696 12.8738 23.4063 12.768 23.3166 12.6875V12.6875Z" stroke="#191919" stroke-width="1.5" stroke-linecap="round" stroke-linejoin="round"/>
</svg>
