<svg width="21" height="20" viewBox="0 0 21 20" fill="none" xmlns="http://www.w3.org/2000/svg">
<path d="M20.3 16.675C20.3 18.677 18.677 20.3 16.675 20.3H3.625C1.62297 20.3 0 18.677 0 16.675V3.625C0 1.62297 1.62297 0 3.625 0H16.675C18.677 0 20.3 1.62297 20.3 3.625V16.675ZM18.85 16.675V3.625C18.85 2.42378 17.8762 1.45 16.675 1.45H3.625C2.42378 1.45 1.45 2.42378 1.45 3.625V16.675C1.45 17.8762 2.42378 18.85 3.625 18.85H16.675C17.8762 18.85 18.85 17.8762 18.85 16.675ZM15.95 5.075C15.95 5.43092 15.6935 5.72693 15.3554 5.78831L15.225 5.8H5.075C4.6746 5.8 4.35 5.4754 4.35 5.075C4.35 4.71908 4.60648 4.42307 4.94467 4.36169L5.075 4.35H15.225C15.6253 4.35 15.95 4.6746 15.95 5.075ZM15.95 10.15C15.95 10.506 15.6935 10.8019 15.3554 10.8633L15.225 10.875H5.075C4.6746 10.875 4.35 10.5503 4.35 10.15C4.35 9.79408 4.60648 9.49807 4.94467 9.43669L5.075 9.425H15.225C15.6253 9.425 15.95 9.7496 15.95 10.15ZM15.95 15.225C15.95 15.581 15.6935 15.8769 15.3554 15.9383L15.225 15.95H5.075C4.6746 15.95 4.35 15.6253 4.35 15.225C4.35 14.869 4.60648 14.5731 4.94467 14.5117L5.075 14.5H15.225C15.6253 14.5 15.95 14.8247 15.95 15.225Z" fill="#191919"/>
</svg>
