<svg width="22" height="22" viewBox="0 0 22 22" fill="none" xmlns="http://www.w3.org/2000/svg">
<path d="M11.0001 3.33618C8.35603 3.33618 6.20483 5.48729 6.20483 8.13136C6.20483 10.7754 8.35603 12.9265 11.0001 12.9265C13.6442 12.9265 15.7954 10.7754 15.7954 8.13136C15.7954 5.48729 13.6442 3.33618 11.0001 3.33618ZM11.0001 11.6367C9.06722 11.6367 7.49462 10.0641 7.49462 8.13127C7.49462 6.19839 9.06722 4.62597 11.0001 4.62597C12.933 4.62597 14.5056 6.19848 14.5056 8.13136C14.5056 10.0642 12.9331 11.6367 11.0001 11.6367Z" fill="#000002"/>
<path d="M11.0001 0C6.51641 0 2.86871 3.64769 2.86871 8.13134C2.86871 10.7171 5.03728 14.5695 6.3299 16.6357C7.18039 17.995 8.09433 19.2888 8.90329 20.2785C10.2018 21.867 10.6665 21.9999 11.0001 21.9999C11.3388 21.9999 11.7775 21.8669 13.072 20.2775C13.8827 19.2819 14.7971 17.9889 15.6467 16.6367C16.9482 14.5655 19.1315 10.7062 19.1315 8.13125C19.1315 3.64769 15.4838 0 11.0001 0ZM14.7526 15.6325C13.0848 18.3396 11.5536 20.1688 10.9924 20.6358C10.4282 20.1832 8.92195 18.3974 7.23086 15.641C5.27838 12.4582 4.15859 9.72105 4.15859 8.13134C4.1585 4.35888 7.22759 1.28979 11.0001 1.28979C14.7725 1.28979 17.8416 4.35888 17.8416 8.13134C17.8417 9.71193 16.7157 12.4459 14.7526 15.6325Z" fill="#000002"/>
</svg>
