<svg width="25" height="24" viewBox="0 0 25 24" fill="none" xmlns="http://www.w3.org/2000/svg">
<path d="M8.7251 12H14.7251H20.7251M14.7251 15.75V17.625C14.7251 18.1223 14.5276 18.5992 14.1759 18.9508C13.8243 19.3025 13.3474 19.5 12.8501 19.5H5.3501C4.85282 19.5 4.3759 19.3025 4.02427 18.9508C3.67264 18.5992 3.4751 18.1223 3.4751 17.625V6.375C3.4751 5.87772 3.67264 5.40081 4.02427 5.04917C4.3759 4.69754 4.85282 4.5 5.3501 4.5H12.4751C13.5106 4.5 14.7251 5.33953 14.7251 6.375V8.25V15.75ZM17.7251 15.75L21.4751 12L17.7251 8.25V15.75Z" stroke="#191919" stroke-width="1.5" stroke-linecap="round" stroke-linejoin="round"/>
</svg>
