<svg width="25" height="24" viewBox="0 0 25 24" fill="none" xmlns="http://www.w3.org/2000/svg">
<path d="M9.68949 12.8572C10.201 12.8572 10.6915 13.0604 11.0532 13.4221C11.4149 13.7838 11.6181 14.2743 11.6181 14.7858V19.5001C11.6181 20.0116 11.4149 20.5021 11.0532 20.8638C10.6915 21.2255 10.201 21.4287 9.68949 21.4287H4.9752C4.46371 21.4287 3.97317 21.2255 3.6115 20.8638C3.24982 20.5021 3.04663 20.0116 3.04663 19.5001V14.7858C3.04663 14.2743 3.24982 13.7838 3.6115 13.4221C3.97317 13.0604 4.46371 12.8572 4.9752 12.8572H9.68949ZM16.1909 12.8572V15.7141H19.0469V18.5718H16.1909V21.4278H13.3323V18.571H16.1892V15.7141H13.3323V12.8572H16.1901H16.1909ZM21.9038 18.571V21.4287H19.0469V18.5718H21.9038V18.571ZM9.68949 14.143H4.9752C4.80471 14.143 4.64119 14.2107 4.52063 14.3312C4.40007 14.4518 4.33235 14.6153 4.33235 14.7858V19.5001C4.33235 19.855 4.62035 20.143 4.9752 20.143H9.68949C9.85998 20.143 10.0235 20.0752 10.1441 19.9547C10.2646 19.8341 10.3323 19.6706 10.3323 19.5001V14.7858C10.3323 14.6153 10.2646 14.4518 10.1441 14.3312C10.0235 14.2107 9.85998 14.143 9.68949 14.143ZM8.61806 15.8572V18.4287H6.04663V15.8572H8.61806ZM21.9038 12.8572V15.7141H19.0469V12.8572H21.9038ZM9.68949 2.57153C10.201 2.57153 10.6915 2.77472 11.0532 3.1364C11.4149 3.49808 11.6181 3.98862 11.6181 4.5001V9.21439C11.6181 9.72588 11.4149 10.2164 11.0532 10.5781C10.6915 10.9398 10.201 11.143 9.68949 11.143H4.9752C4.46371 11.143 3.97317 10.9398 3.6115 10.5781C3.24982 10.2164 3.04663 9.72588 3.04663 9.21439V4.5001C3.04663 3.98862 3.24982 3.49808 3.6115 3.1364C3.97317 2.77472 4.46371 2.57153 4.9752 2.57153H9.68949ZM19.9752 2.57153C20.4867 2.57153 20.9772 2.77472 21.3389 3.1364C21.7006 3.49808 21.9038 3.98862 21.9038 4.5001V9.21439C21.9038 9.72588 21.7006 10.2164 21.3389 10.5781C20.9772 10.9398 20.4867 11.143 19.9752 11.143H15.2609C14.7494 11.143 14.2589 10.9398 13.8972 10.5781C13.5355 10.2164 13.3323 9.72588 13.3323 9.21439V4.5001C13.3323 3.98862 13.5355 3.49808 13.8972 3.1364C14.2589 2.77472 14.7494 2.57153 15.2609 2.57153H19.9752ZM9.68949 3.85725H4.9752C4.80471 3.85725 4.64119 3.92498 4.52063 4.04554C4.40007 4.1661 4.33235 4.32961 4.33235 4.5001V9.21439C4.33235 9.56925 4.62035 9.85725 4.9752 9.85725H9.68949C9.85998 9.85725 10.0235 9.78952 10.1441 9.66896C10.2646 9.5484 10.3323 9.38489 10.3323 9.21439V4.5001C10.3323 4.32961 10.2646 4.1661 10.1441 4.04554C10.0235 3.92498 9.85998 3.85725 9.68949 3.85725ZM19.9752 3.85725H15.2609C15.0904 3.85725 14.9269 3.92498 14.8063 4.04554C14.6858 4.1661 14.6181 4.32961 14.6181 4.5001V9.21439C14.6181 9.56925 14.9061 9.85725 15.2609 9.85725H19.9752C20.1457 9.85725 20.3092 9.78952 20.4298 9.66896C20.5503 9.5484 20.6181 9.38489 20.6181 9.21439V4.5001C20.6181 4.32961 20.5503 4.1661 20.4298 4.04554C20.3092 3.92498 20.1457 3.85725 19.9752 3.85725ZM8.61806 5.57153V8.14296H6.04663V5.57153H8.61806ZM18.9038 5.57153V8.14296H16.3323V5.57153H18.9038Z" fill="#191919"/>
</svg>
