<svg width="24" height="23" viewBox="0 0 24 23" fill="none" xmlns="http://www.w3.org/2000/svg">
<path d="M12.8564 18.2184L12.8402 18.1381H12.7583H2.49119C2.13703 18.1381 1.84559 17.8481 1.84559 17.4842V6.70885H18.9812V11.6077V11.6926L19.065 11.7064C19.3136 11.7473 19.559 11.8064 19.7971 11.8805L19.9268 11.9208V11.785V3.35295C19.9268 2.46966 19.2161 1.74526 18.3357 1.74526H16.5162H16.4162V1.84526V2.5991V2.6991H16.5162H18.3357C18.6895 2.6991 18.9812 2.9925 18.9812 3.35295V5.755H1.84559V3.35295C1.84559 2.9925 2.13736 2.6991 2.49119 2.6991H4.31066H4.41066V2.5991V1.84526V1.74526H4.31066H2.49119C1.61474 1.74526 0.9 2.4695 0.9 3.35295V17.4842C0.9 18.3717 1.6149 19.0919 2.49119 19.0919H12.9632H13.1048L13.0574 18.9585C12.9737 18.7224 12.9078 18.4745 12.8564 18.2184ZM13.7407 1.8456V1.7456H13.6407H11.8525H11.7525V1.8456V2.59945V2.69945H11.8525H13.6407H13.7407V2.59945V1.8456ZM7.1875 1.7456H7.0875V1.8456V2.59945V2.69945H7.1875H8.97569H9.07569V2.59945V1.8456H8.97569V1.7456H7.1875ZM5.37594 0.9H5.27594V1V4.11027V4.21027H5.37594H6.12153H6.22153V4.11027V1H6.12153V0.9H5.37594ZM10.8869 1V0.9H10.7869H10.0413H9.94131V1V4.11027V4.21027H10.0413H10.7869H10.8869V4.11027V1ZM15.5519 1V0.9H15.4519H14.7063H14.6063V1V4.11027V4.21027H14.7063H15.4519H15.5519V4.11027V1ZM17.2673 9.36174H17.3673V9.26174V8.5079V8.4079H17.2673H14.981H14.881V8.5079V9.26174V9.36174H14.981H17.2673ZM13.5606 8.5079V8.4079H13.4606H11.174H11.074V8.5079V9.26174V9.36174H11.174H13.4606H13.5606V9.26174V8.5079ZM9.75391 8.5079V8.4079H9.65391H7.36763H7.26762V8.5079V9.26174V9.36174H7.36763H9.65391H9.75391V9.26174V8.5079ZM3.56094 8.4079H3.46094V8.5079V9.26174V9.36174H3.56094H5.84722H5.94722V9.26174V8.5079H5.84722V8.4079H3.56094ZM3.56094 11.9613H3.46094V12.0613V12.8152V12.9152H3.56094H5.84722H5.94722V12.8152V12.0613H5.84722V11.9613H3.56094ZM11.074 12.8152V12.9152H11.174H13.4606H13.5606V12.8152V12.0613V11.9613H13.4606H11.174H11.074V12.0613V12.8152ZM9.75391 12.0613V11.9613H9.65391H7.36763H7.26762V12.0613V12.8152V12.9152H7.36763H9.65391H9.75391V12.8152V12.0613ZM3.46094 16.3686V16.4686H3.56094H5.84722H5.94722V16.3686V15.6147V15.5147H5.84722H3.56094H3.46094V15.6147V16.3686ZM7.26762 16.3686V16.4686H7.36763H9.65391H9.75391V16.3686V15.6147V15.5147H9.65391H7.36763H7.26762V15.6147V16.3686ZM18.6701 14.3124V14.2124H18.5701H17.8245H17.7245V14.3124V17.757V17.857H17.8245H19.9839H20.0839V17.757V17.0032V16.9032H19.9839H18.6701V14.3124ZM18.1971 22.1C20.9016 22.1 23.1 19.8761 23.1 17.1443C23.1 14.4125 20.9016 12.1883 18.1971 12.1883C15.4926 12.1883 13.2946 14.4126 13.2946 17.1443C13.2946 19.8761 15.4926 22.1 18.1971 22.1ZM18.1971 13.1421C20.378 13.1421 22.1544 14.9366 22.1544 17.1443C22.1544 19.3517 20.378 21.1462 18.1971 21.1462C16.0166 21.1462 14.2402 19.352 14.2402 17.1443C14.2402 14.9366 16.0163 13.1421 18.1971 13.1421Z" fill="black" stroke="black" stroke-width="0.2"/>
</svg>
