<svg width="44" height="42" viewBox="0 0 44 42" fill="none" xmlns="http://www.w3.org/2000/svg">
<path d="M23.6349 33.8714L23.604 33.7181H23.4477H3.84681C3.17069 33.7181 2.61432 33.1646 2.61432 32.4699V11.8987H35.3278V21.2511V21.4132L35.4877 21.4395C35.9623 21.5176 36.4308 21.6303 36.8854 21.7718L37.1331 21.8489V21.5895V5.492C37.1331 3.80572 35.7761 2.42276 34.0953 2.42276H30.6218H30.4309V2.61367V4.05283V4.24374H30.6218H34.0953C34.7708 4.24374 35.3278 4.80387 35.3278 5.492V10.0777H2.61432V5.492C2.61432 4.80387 3.17132 4.24374 3.84681 4.24374H7.32034H7.51125V4.05283V2.61367V2.42276H7.32034H3.84681C2.17359 2.42276 0.809091 3.8054 0.809091 5.492V32.4699C0.809091 34.1641 2.1739 35.5391 3.84681 35.5391H23.8388H24.1091L24.0187 35.2843C23.8588 34.8338 23.7331 34.3603 23.6349 33.8714ZM25.3232 2.61433V2.42342H25.1323H21.7185H21.5276V2.61433V4.0535V4.24441H21.7185H25.1323H25.3232V4.0535V2.61433ZM12.8125 2.42342H12.6216V2.61433V4.0535V4.24441H12.8125H16.2263H16.4172V4.0535V2.61433H16.2263V2.42342H12.8125ZM9.35406 0.809091H9.16315V1V6.9378V7.12871H9.35406H10.7775H10.9684V6.9378V1H10.7775V0.809091H9.35406ZM19.875 1V0.809091H19.6841H18.2607H18.0698V1V6.9378V7.12871H18.2607H19.6841H19.875V6.9378V1ZM28.781 1V0.809091H28.5901H27.1667H26.9757V1V6.9378V7.12871H27.1667H28.5901H28.781V6.9378V1ZM32.0557 16.9633H32.2466V16.7724V15.3333V15.1423H32.0557H27.691H27.5001V15.3333V16.7724V16.9633H27.691H32.0557ZM24.9793 15.3333V15.1423H24.7884H20.423H20.2321V15.3333V16.7724V16.9633H20.423H24.7884H24.9793V16.7724V15.3333ZM17.712 15.3333V15.1423H17.5211H13.1564H12.9655V15.3333V16.7724V16.9633H13.1564H17.5211H17.712V16.7724V15.3333ZM5.88906 15.1423H5.69815V15.3333V16.7724V16.9633H5.88906H10.2538H10.4447V16.7724V15.3333H10.2538V15.1423H5.88906ZM5.88906 21.9261H5.69815V22.117V23.5562V23.7471H5.88906H10.2538H10.4447V23.5562V22.117H10.2538V21.9261H5.88906ZM20.2321 23.5562V23.7471H20.423H24.7884H24.9793V23.5562V22.117V21.9261H24.7884H20.423H20.2321V22.117V23.5562ZM17.712 22.117V21.9261H17.5211H13.1564H12.9655V22.117V23.5562V23.7471H13.1564H17.5211H17.712V23.5562V22.117ZM5.69815 30.34V30.5309H5.88906H10.2538H10.4447V30.34V28.9008V28.7099H10.2538H5.88906H5.69815V28.9008V30.34ZM12.9655 30.34V30.5309H13.1564H17.5211H17.712V30.34V28.9008V28.7099H17.5211H13.1564H12.9655V28.9008V30.34ZM34.7338 26.4146V26.2237H34.5429H33.1195H32.9286V26.4146V32.9907V33.1816H33.1195H37.2421H37.433V32.9907V31.5516V31.3606H37.2421H34.7338V26.4146ZM33.8309 41.2818C38.994 41.2818 43.1909 37.0361 43.1909 31.8209C43.1909 26.6058 38.994 22.3594 33.8309 22.3594C28.6677 22.3594 24.4715 26.6058 24.4715 31.8209C24.4715 37.0361 28.6677 41.2818 33.8309 41.2818ZM33.8309 24.1804C37.9943 24.1804 41.3857 27.6062 41.3857 31.8209C41.3857 36.035 37.9943 39.4608 33.8309 39.4608C29.6681 39.4608 26.2767 36.0356 26.2767 31.8209C26.2767 27.6062 29.6674 24.1804 33.8309 24.1804Z" fill="#2094CC" stroke="#2094CC" stroke-width="0.381818"/>
</svg>
