<svg width="40" height="37" viewBox="0 0 40 37" fill="none" xmlns="http://www.w3.org/2000/svg">
<path d="M20.9464 30.3718C21.0395 30.8299 21.1589 31.275 21.3113 31.7H2.65642C1.19533 31.7 0 30.5114 0 29.0436V4.14568C0 2.68459 1.19533 1.48926 2.65642 1.48926H5.89764V2.81747H2.65642C1.92587 2.81747 1.32821 3.41513 1.32821 4.14568V8.55405H32.2101V4.14568C32.2101 3.41513 31.6125 2.81747 30.8819 2.81747H27.6407V1.48926H30.8819C32.3497 1.48926 33.5383 2.68459 33.5383 4.14568V19.0021C33.1066 18.8693 32.6614 18.7633 32.2101 18.6898V9.88226H1.32821V29.0436C1.32821 29.7809 1.92587 30.3718 2.65642 30.3718H20.9464ZM22.5183 1.48987H19.3328V2.81808H22.5183V1.48987ZM14.208 1.48987H11.0225V2.81808H14.208V1.48987V1.48987ZM9.12355 0H7.79534V5.48001H9.12355V0V0ZM17.4345 0H16.1063V5.48001H17.4345V0ZM25.7448 0H24.4166V5.48001H25.7448V0ZM28.9787 14.5564V13.2282H24.9059V14.5564H28.9787ZM22.1974 13.2282H18.124V14.5564H22.1974V13.2282ZM15.4162 13.2282H11.3434V14.5564H15.4162V13.2282ZM8.63489 13.2282H4.56208V14.5564H8.63489V13.2282V13.2282ZM8.63489 19.489H4.56208V20.8172H8.63489V19.489V19.489ZM18.124 20.8172H22.1974V19.489H18.124V20.8172ZM15.4162 19.489H11.3434V20.8172H15.4162V19.489ZM4.56208 27.0779H8.63489V25.7497H4.56208V27.0779ZM11.3434 27.0779H15.4162V25.7497H11.3434V27.0779ZM39.191 28.4447C39.191 33.1623 35.3528 37 30.6351 37C25.9175 37 22.0799 33.1623 22.0799 28.4447C22.0799 23.7271 25.9175 19.8888 30.6351 19.8888C35.3528 19.8888 39.191 23.7271 39.191 28.4447ZM37.8628 28.4447C37.8628 24.4595 34.6204 21.217 30.6351 21.217C26.6499 21.217 23.4081 24.4595 23.4081 28.4447C23.4081 32.43 26.6505 35.6718 30.6351 35.6718C34.6204 35.6718 37.8628 32.4293 37.8628 28.4447ZM31.2995 23.4552H29.9713V29.5243H33.8182V28.1961H31.2995V23.4552Z" fill="#E0013F"/>
</svg>
