<svg width="35" height="39" viewBox="0 0 35 39" fill="none" xmlns="http://www.w3.org/2000/svg">
<mask id="path-1-outside-1_468_1835" maskUnits="userSpaceOnUse" x="0" y="0" width="35" height="39" fill="black">
<rect fill="white" width="35" height="39"/>
<path d="M34.4125 22.4352C34.4125 15.7603 28.9821 10.3293 22.3072 10.3293C21.8199 10.3293 21.3403 10.3613 20.8676 10.4178C20.5906 5.17947 16.2539 1 10.9475 1C5.46237 1 1 5.46237 1 10.9481C1 14.0303 2.44768 16.9553 4.88726 18.8338C4.66315 22.6524 6.00431 23.7112 6.16206 23.8212C6.25345 23.8852 6.35939 23.9173 6.4665 23.9173C6.55439 23.9173 6.64287 23.8957 6.7232 23.8509C6.90074 23.7525 7.00668 23.5616 6.99621 23.359C6.95546 22.5889 7.65456 21.6476 8.97185 20.6965C9.41425 20.7861 9.86072 20.8345 10.3078 20.8636C10.2408 21.3787 10.2024 21.902 10.2024 22.4352C10.2024 29.1096 15.6328 34.5406 22.3083 34.5406C23.1279 34.5406 23.9528 34.4556 24.7648 34.2874C25.9942 35.1687 27.3534 36.4359 27.2864 37.6961C27.276 37.8987 27.3819 38.0896 27.5594 38.188C27.6392 38.2328 27.7277 38.2544 27.8156 38.2544C27.9227 38.2544 28.0292 38.2218 28.12 38.1583C28.3086 38.0262 29.9216 36.7491 29.6311 32.0701C32.6313 29.7854 34.4125 26.2061 34.4125 22.4352ZM8.97243 19.612C8.82749 19.5789 8.6744 19.6091 8.55274 19.6935C7.42347 20.4765 6.65684 21.2606 6.25752 22.0377C6.02701 21.3787 5.83492 20.3047 5.96414 18.6219C5.97811 18.438 5.89604 18.2598 5.74586 18.1516C3.43783 16.4827 2.06 13.7893 2.06 10.9481C2.06 6.04738 6.0468 2.06117 10.9475 2.06117C15.7265 2.06117 19.6254 5.85529 19.8158 10.5889C15.1817 11.5622 11.5168 15.1945 10.4917 19.81C9.98354 19.7826 9.4742 19.7261 8.97243 19.612ZM28.772 31.3873C28.6224 31.4956 28.5397 31.6737 28.5537 31.8577C28.7324 34.1849 28.4151 35.5819 28.0839 36.3753C27.6491 35.3567 26.6776 34.3217 25.1816 33.2838C25.0919 33.2215 24.9866 33.1889 24.8789 33.1889C24.8393 33.1889 24.8003 33.193 24.7613 33.2017C23.9516 33.3863 23.1262 33.4794 22.3072 33.4794C16.2167 33.4794 11.2624 28.5246 11.2624 22.4352C11.2624 16.3447 16.2172 11.3905 22.3072 11.3905C28.3971 11.3905 33.3513 16.3453 33.3513 22.4352C33.3519 25.9657 31.6394 29.3121 28.772 31.3873Z"/>
</mask>
<path d="M34.4125 22.4352C34.4125 15.7603 28.9821 10.3293 22.3072 10.3293C21.8199 10.3293 21.3403 10.3613 20.8676 10.4178C20.5906 5.17947 16.2539 1 10.9475 1C5.46237 1 1 5.46237 1 10.9481C1 14.0303 2.44768 16.9553 4.88726 18.8338C4.66315 22.6524 6.00431 23.7112 6.16206 23.8212C6.25345 23.8852 6.35939 23.9173 6.4665 23.9173C6.55439 23.9173 6.64287 23.8957 6.7232 23.8509C6.90074 23.7525 7.00668 23.5616 6.99621 23.359C6.95546 22.5889 7.65456 21.6476 8.97185 20.6965C9.41425 20.7861 9.86072 20.8345 10.3078 20.8636C10.2408 21.3787 10.2024 21.902 10.2024 22.4352C10.2024 29.1096 15.6328 34.5406 22.3083 34.5406C23.1279 34.5406 23.9528 34.4556 24.7648 34.2874C25.9942 35.1687 27.3534 36.4359 27.2864 37.6961C27.276 37.8987 27.3819 38.0896 27.5594 38.188C27.6392 38.2328 27.7277 38.2544 27.8156 38.2544C27.9227 38.2544 28.0292 38.2218 28.12 38.1583C28.3086 38.0262 29.9216 36.7491 29.6311 32.0701C32.6313 29.7854 34.4125 26.2061 34.4125 22.4352ZM8.97243 19.612C8.82749 19.5789 8.6744 19.6091 8.55274 19.6935C7.42347 20.4765 6.65684 21.2606 6.25752 22.0377C6.02701 21.3787 5.83492 20.3047 5.96414 18.6219C5.97811 18.438 5.89604 18.2598 5.74586 18.1516C3.43783 16.4827 2.06 13.7893 2.06 10.9481C2.06 6.04738 6.0468 2.06117 10.9475 2.06117C15.7265 2.06117 19.6254 5.85529 19.8158 10.5889C15.1817 11.5622 11.5168 15.1945 10.4917 19.81C9.98354 19.7826 9.4742 19.7261 8.97243 19.612ZM28.772 31.3873C28.6224 31.4956 28.5397 31.6737 28.5537 31.8577C28.7324 34.1849 28.4151 35.5819 28.0839 36.3753C27.6491 35.3567 26.6776 34.3217 25.1816 33.2838C25.0919 33.2215 24.9866 33.1889 24.8789 33.1889C24.8393 33.1889 24.8003 33.193 24.7613 33.2017C23.9516 33.3863 23.1262 33.4794 22.3072 33.4794C16.2167 33.4794 11.2624 28.5246 11.2624 22.4352C11.2624 16.3447 16.2172 11.3905 22.3072 11.3905C28.3971 11.3905 33.3513 16.3453 33.3513 22.4352C33.3519 25.9657 31.6394 29.3121 28.772 31.3873Z" fill="#2094CC"/>
<path d="M34.4125 22.4352C34.4125 15.7603 28.9821 10.3293 22.3072 10.3293C21.8199 10.3293 21.3403 10.3613 20.8676 10.4178C20.5906 5.17947 16.2539 1 10.9475 1C5.46237 1 1 5.46237 1 10.9481C1 14.0303 2.44768 16.9553 4.88726 18.8338C4.66315 22.6524 6.00431 23.7112 6.16206 23.8212C6.25345 23.8852 6.35939 23.9173 6.4665 23.9173C6.55439 23.9173 6.64287 23.8957 6.7232 23.8509C6.90074 23.7525 7.00668 23.5616 6.99621 23.359C6.95546 22.5889 7.65456 21.6476 8.97185 20.6965C9.41425 20.7861 9.86072 20.8345 10.3078 20.8636C10.2408 21.3787 10.2024 21.902 10.2024 22.4352C10.2024 29.1096 15.6328 34.5406 22.3083 34.5406C23.1279 34.5406 23.9528 34.4556 24.7648 34.2874C25.9942 35.1687 27.3534 36.4359 27.2864 37.6961C27.276 37.8987 27.3819 38.0896 27.5594 38.188C27.6392 38.2328 27.7277 38.2544 27.8156 38.2544C27.9227 38.2544 28.0292 38.2218 28.12 38.1583C28.3086 38.0262 29.9216 36.7491 29.6311 32.0701C32.6313 29.7854 34.4125 26.2061 34.4125 22.4352ZM8.97243 19.612C8.82749 19.5789 8.6744 19.6091 8.55274 19.6935C7.42347 20.4765 6.65684 21.2606 6.25752 22.0377C6.02701 21.3787 5.83492 20.3047 5.96414 18.6219C5.97811 18.438 5.89604 18.2598 5.74586 18.1516C3.43783 16.4827 2.06 13.7893 2.06 10.9481C2.06 6.04738 6.0468 2.06117 10.9475 2.06117C15.7265 2.06117 19.6254 5.85529 19.8158 10.5889C15.1817 11.5622 11.5168 15.1945 10.4917 19.81C9.98354 19.7826 9.4742 19.7261 8.97243 19.612ZM28.772 31.3873C28.6224 31.4956 28.5397 31.6737 28.5537 31.8577C28.7324 34.1849 28.4151 35.5819 28.0839 36.3753C27.6491 35.3567 26.6776 34.3217 25.1816 33.2838C25.0919 33.2215 24.9866 33.1889 24.8789 33.1889C24.8393 33.1889 24.8003 33.193 24.7613 33.2017C23.9516 33.3863 23.1262 33.4794 22.3072 33.4794C16.2167 33.4794 11.2624 28.5246 11.2624 22.4352C11.2624 16.3447 16.2172 11.3905 22.3072 11.3905C28.3971 11.3905 33.3513 16.3453 33.3513 22.4352C33.3519 25.9657 31.6394 29.3121 28.772 31.3873Z" stroke="#2094CC" stroke-width="0.8" mask="url(#path-1-outside-1_468_1835)"/>
<mask id="path-2-outside-2_468_1835" maskUnits="userSpaceOnUse" x="13.8546" y="21.6091" width="5" height="3" fill="black">
<rect fill="white" x="13.8546" y="21.6091" width="5" height="3"/>
<path d="M18.087 22.6091H14.8546V23.6697H18.087V22.6091Z"/>
</mask>
<path d="M18.087 22.6091H14.8546V23.6697H18.087V22.6091Z" fill="#2094CC"/>
<path d="M18.087 22.6091H14.8546V23.6697H18.087V22.6091Z" stroke="#2094CC" stroke-width="0.8" mask="url(#path-2-outside-2_468_1835)"/>
<mask id="path-3-outside-3_468_1835" maskUnits="userSpaceOnUse" x="19.5347" y="21.6091" width="5" height="3" fill="black">
<rect fill="white" x="19.5347" y="21.6091" width="5" height="3"/>
<path d="M23.7665 22.6091H20.5347V23.6697H23.7665V22.6091Z"/>
</mask>
<path d="M23.7665 22.6091H20.5347V23.6697H23.7665V22.6091Z" fill="#2094CC"/>
<path d="M23.7665 22.6091H20.5347V23.6697H23.7665V22.6091Z" stroke="#2094CC" stroke-width="0.8" mask="url(#path-3-outside-3_468_1835)"/>
<mask id="path-4-outside-4_468_1835" maskUnits="userSpaceOnUse" x="25.2142" y="21.6091" width="5" height="3" fill="black">
<rect fill="white" x="25.2142" y="21.6091" width="5" height="3"/>
<path d="M29.4466 22.6091H26.2142V23.6697H29.4466V22.6091Z"/>
</mask>
<path d="M29.4466 22.6091H26.2142V23.6697H29.4466V22.6091Z" fill="#2094CC"/>
<path d="M29.4466 22.6091H26.2142V23.6697H29.4466V22.6091Z" stroke="#2094CC" stroke-width="0.8" mask="url(#path-4-outside-4_468_1835)"/>
<mask id="path-5-outside-5_468_1835" maskUnits="userSpaceOnUse" x="11.1268" y="9.99072" width="5" height="3" fill="black">
<rect fill="white" x="11.1268" y="9.99072" width="5" height="3"/>
<path d="M14.7562 10.9907H12.1268V12.0513H14.7562V10.9907Z"/>
</mask>
<path d="M14.7562 10.9907H12.1268V12.0513H14.7562V10.9907Z" fill="#2094CC"/>
<path d="M14.7562 10.9907H12.1268V12.0513H14.7562V10.9907Z" stroke="#2094CC" stroke-width="0.8" mask="url(#path-5-outside-5_468_1835)"/>
<mask id="path-6-outside-6_468_1835" maskUnits="userSpaceOnUse" x="6.50555" y="9.99072" width="5" height="3" fill="black">
<rect fill="white" x="6.50555" y="9.99072" width="5" height="3"/>
<path d="M10.1349 10.9907H7.50555V12.0513H10.1349V10.9907Z"/>
</mask>
<path d="M10.1349 10.9907H7.50555V12.0513H10.1349V10.9907Z" fill="#2094CC"/>
<path d="M10.1349 10.9907H7.50555V12.0513H10.1349V10.9907Z" stroke="#2094CC" stroke-width="0.8" mask="url(#path-6-outside-6_468_1835)"/>
</svg>
