<svg width="43" height="42" viewBox="0 0 43 42" fill="none" xmlns="http://www.w3.org/2000/svg">
<mask id="path-1-outside-1_1057_1980" maskUnits="userSpaceOnUse" x="0.0800171" y="-0.020752" width="42" height="42" fill="black">
<rect fill="white" x="0.0800171" y="-0.020752" width="42" height="42"/>
<path d="M40.9049 28.6542H38.2049V21.2292C38.2049 21.0496 38.1341 20.8782 38.0072 20.7519L33.9572 16.7019L33.0029 17.6562L36.8549 21.5086V28.6543H31.4549V18.5292C31.4549 15.423 29.1105 12.8586 26.0995 12.5009C27.3226 11.2784 28.0799 9.59086 28.0799 7.72925C28.0799 4.00741 25.0518 0.979248 21.3299 0.979248C17.6081 0.979248 14.5799 4.00741 14.5799 7.72925C14.5799 9.64093 15.3824 11.3661 16.6643 12.5953C13.9333 13.1892 11.8799 15.6228 11.8799 18.5292V28.6543H6.47994V21.5086L10.3323 17.6562L9.37797 16.7019L5.32797 20.7519C5.20083 20.8782 5.13002 21.0496 5.13002 21.2292V28.6542H1.75502C1.38257 28.6542 1.08002 28.9559 1.08002 29.3292V37.4292C1.08002 37.8025 1.38257 38.1042 1.75502 38.1042H13.23V40.8042C13.23 41.1775 13.5326 41.4792 13.905 41.4792H28.755C29.1275 41.4792 29.43 41.1775 29.43 40.8042V38.1042H40.905C41.2775 38.1042 41.58 37.8025 41.58 37.4292V29.3292C41.58 28.9559 41.2775 28.6542 40.905 28.6542H40.9049ZM18.3954 13.8042C18.4225 13.8171 18.4509 13.8259 18.4777 13.8386C18.6504 13.9196 18.8272 13.9926 19.0074 14.0591C19.0587 14.0781 19.1093 14.0983 19.1615 14.1158C19.3537 14.1812 19.5496 14.2373 19.7494 14.2852C19.7864 14.2939 19.8229 14.3053 19.8599 14.3135C20.3339 14.4192 20.8245 14.4792 21.3296 14.4792C21.8346 14.4792 22.3252 14.4192 22.7989 14.3132C22.836 14.3051 22.8724 14.2936 22.9095 14.2849C23.1093 14.2369 23.3052 14.1809 23.4974 14.1155C23.5493 14.098 23.5999 14.0778 23.6514 14.0588C23.8316 13.9926 24.0085 13.919 24.1811 13.8383C24.2083 13.8253 24.2366 13.8174 24.2635 13.8039H24.2869L21.3296 19.7198L18.3716 13.8042H18.3954ZM15.9296 7.72917C15.9296 4.75161 18.352 2.32917 21.3296 2.32917C24.3071 2.32917 26.7296 4.75161 26.7296 7.72917C26.7296 9.83525 25.5152 11.6584 23.752 12.5488C23.5871 12.632 23.4193 12.7056 23.2485 12.7709C23.2153 12.7839 23.1815 12.7959 23.1478 12.808C22.9823 12.8673 22.8151 12.918 22.6464 12.9605C22.6159 12.968 22.5864 12.9767 22.556 12.984C22.3671 13.028 22.176 13.0629 21.9843 13.0858C21.975 13.0871 21.9662 13.0891 21.9566 13.0898C21.5395 13.1383 21.1183 13.1383 20.7012 13.0898C20.6919 13.0885 20.6832 13.0864 20.6735 13.0858C20.4819 13.0624 20.2908 13.0277 20.1019 12.984C20.0714 12.9764 20.0419 12.9683 20.0115 12.9611C19.8427 12.9186 19.6746 12.868 19.5101 12.8086C19.4763 12.7965 19.4432 12.7842 19.4094 12.7715C19.2385 12.7067 19.0707 12.6326 18.9059 12.5494C17.1439 11.6584 15.9296 9.83525 15.9296 7.72925V7.72917ZM13.2296 18.5292C13.2296 16.2794 14.8119 14.3948 16.9212 13.9217L20.7262 21.5311C20.8401 21.7598 21.0737 21.9042 21.3295 21.9042C21.5854 21.9042 21.8189 21.7598 21.9337 21.5308L25.7866 13.8244C28.2015 14.0324 30.1045 16.0615 30.1045 18.5292V28.6542H13.2295L13.2296 18.5292ZM40.2296 36.7542H28.7546C28.3821 36.7542 28.0796 37.0559 28.0796 37.4292V40.1292H14.5796V37.4292C14.5796 37.0559 14.277 36.7542 13.9046 36.7542H2.42955V30.0042H40.2296V36.7542Z"/>
</mask>
<path d="M40.9049 28.6542H38.2049V21.2292C38.2049 21.0496 38.1341 20.8782 38.0072 20.7519L33.9572 16.7019L33.0029 17.6562L36.8549 21.5086V28.6543H31.4549V18.5292C31.4549 15.423 29.1105 12.8586 26.0995 12.5009C27.3226 11.2784 28.0799 9.59086 28.0799 7.72925C28.0799 4.00741 25.0518 0.979248 21.3299 0.979248C17.6081 0.979248 14.5799 4.00741 14.5799 7.72925C14.5799 9.64093 15.3824 11.3661 16.6643 12.5953C13.9333 13.1892 11.8799 15.6228 11.8799 18.5292V28.6543H6.47994V21.5086L10.3323 17.6562L9.37797 16.7019L5.32797 20.7519C5.20083 20.8782 5.13002 21.0496 5.13002 21.2292V28.6542H1.75502C1.38257 28.6542 1.08002 28.9559 1.08002 29.3292V37.4292C1.08002 37.8025 1.38257 38.1042 1.75502 38.1042H13.23V40.8042C13.23 41.1775 13.5326 41.4792 13.905 41.4792H28.755C29.1275 41.4792 29.43 41.1775 29.43 40.8042V38.1042H40.905C41.2775 38.1042 41.58 37.8025 41.58 37.4292V29.3292C41.58 28.9559 41.2775 28.6542 40.905 28.6542H40.9049ZM18.3954 13.8042C18.4225 13.8171 18.4509 13.8259 18.4777 13.8386C18.6504 13.9196 18.8272 13.9926 19.0074 14.0591C19.0587 14.0781 19.1093 14.0983 19.1615 14.1158C19.3537 14.1812 19.5496 14.2373 19.7494 14.2852C19.7864 14.2939 19.8229 14.3053 19.8599 14.3135C20.3339 14.4192 20.8245 14.4792 21.3296 14.4792C21.8346 14.4792 22.3252 14.4192 22.7989 14.3132C22.836 14.3051 22.8724 14.2936 22.9095 14.2849C23.1093 14.2369 23.3052 14.1809 23.4974 14.1155C23.5493 14.098 23.5999 14.0778 23.6514 14.0588C23.8316 13.9926 24.0085 13.919 24.1811 13.8383C24.2083 13.8253 24.2366 13.8174 24.2635 13.8039H24.2869L21.3296 19.7198L18.3716 13.8042H18.3954ZM15.9296 7.72917C15.9296 4.75161 18.352 2.32917 21.3296 2.32917C24.3071 2.32917 26.7296 4.75161 26.7296 7.72917C26.7296 9.83525 25.5152 11.6584 23.752 12.5488C23.5871 12.632 23.4193 12.7056 23.2485 12.7709C23.2153 12.7839 23.1815 12.7959 23.1478 12.808C22.9823 12.8673 22.8151 12.918 22.6464 12.9605C22.6159 12.968 22.5864 12.9767 22.556 12.984C22.3671 13.028 22.176 13.0629 21.9843 13.0858C21.975 13.0871 21.9662 13.0891 21.9566 13.0898C21.5395 13.1383 21.1183 13.1383 20.7012 13.0898C20.6919 13.0885 20.6832 13.0864 20.6735 13.0858C20.4819 13.0624 20.2908 13.0277 20.1019 12.984C20.0714 12.9764 20.0419 12.9683 20.0115 12.9611C19.8427 12.9186 19.6746 12.868 19.5101 12.8086C19.4763 12.7965 19.4432 12.7842 19.4094 12.7715C19.2385 12.7067 19.0707 12.6326 18.9059 12.5494C17.1439 11.6584 15.9296 9.83525 15.9296 7.72925V7.72917ZM13.2296 18.5292C13.2296 16.2794 14.8119 14.3948 16.9212 13.9217L20.7262 21.5311C20.8401 21.7598 21.0737 21.9042 21.3295 21.9042C21.5854 21.9042 21.8189 21.7598 21.9337 21.5308L25.7866 13.8244C28.2015 14.0324 30.1045 16.0615 30.1045 18.5292V28.6542H13.2295L13.2296 18.5292ZM40.2296 36.7542H28.7546C28.3821 36.7542 28.0796 37.0559 28.0796 37.4292V40.1292H14.5796V37.4292C14.5796 37.0559 14.277 36.7542 13.9046 36.7542H2.42955V30.0042H40.2296V36.7542Z" fill="#2094CC"/>
<path d="M40.9049 28.6542H38.2049V21.2292C38.2049 21.0496 38.1341 20.8782 38.0072 20.7519L33.9572 16.7019L33.0029 17.6562L36.8549 21.5086V28.6543H31.4549V18.5292C31.4549 15.423 29.1105 12.8586 26.0995 12.5009C27.3226 11.2784 28.0799 9.59086 28.0799 7.72925C28.0799 4.00741 25.0518 0.979248 21.3299 0.979248C17.6081 0.979248 14.5799 4.00741 14.5799 7.72925C14.5799 9.64093 15.3824 11.3661 16.6643 12.5953C13.9333 13.1892 11.8799 15.6228 11.8799 18.5292V28.6543H6.47994V21.5086L10.3323 17.6562L9.37797 16.7019L5.32797 20.7519C5.20083 20.8782 5.13002 21.0496 5.13002 21.2292V28.6542H1.75502C1.38257 28.6542 1.08002 28.9559 1.08002 29.3292V37.4292C1.08002 37.8025 1.38257 38.1042 1.75502 38.1042H13.23V40.8042C13.23 41.1775 13.5326 41.4792 13.905 41.4792H28.755C29.1275 41.4792 29.43 41.1775 29.43 40.8042V38.1042H40.905C41.2775 38.1042 41.58 37.8025 41.58 37.4292V29.3292C41.58 28.9559 41.2775 28.6542 40.905 28.6542H40.9049ZM18.3954 13.8042C18.4225 13.8171 18.4509 13.8259 18.4777 13.8386C18.6504 13.9196 18.8272 13.9926 19.0074 14.0591C19.0587 14.0781 19.1093 14.0983 19.1615 14.1158C19.3537 14.1812 19.5496 14.2373 19.7494 14.2852C19.7864 14.2939 19.8229 14.3053 19.8599 14.3135C20.3339 14.4192 20.8245 14.4792 21.3296 14.4792C21.8346 14.4792 22.3252 14.4192 22.7989 14.3132C22.836 14.3051 22.8724 14.2936 22.9095 14.2849C23.1093 14.2369 23.3052 14.1809 23.4974 14.1155C23.5493 14.098 23.5999 14.0778 23.6514 14.0588C23.8316 13.9926 24.0085 13.919 24.1811 13.8383C24.2083 13.8253 24.2366 13.8174 24.2635 13.8039H24.2869L21.3296 19.7198L18.3716 13.8042H18.3954ZM15.9296 7.72917C15.9296 4.75161 18.352 2.32917 21.3296 2.32917C24.3071 2.32917 26.7296 4.75161 26.7296 7.72917C26.7296 9.83525 25.5152 11.6584 23.752 12.5488C23.5871 12.632 23.4193 12.7056 23.2485 12.7709C23.2153 12.7839 23.1815 12.7959 23.1478 12.808C22.9823 12.8673 22.8151 12.918 22.6464 12.9605C22.6159 12.968 22.5864 12.9767 22.556 12.984C22.3671 13.028 22.176 13.0629 21.9843 13.0858C21.975 13.0871 21.9662 13.0891 21.9566 13.0898C21.5395 13.1383 21.1183 13.1383 20.7012 13.0898C20.6919 13.0885 20.6832 13.0864 20.6735 13.0858C20.4819 13.0624 20.2908 13.0277 20.1019 12.984C20.0714 12.9764 20.0419 12.9683 20.0115 12.9611C19.8427 12.9186 19.6746 12.868 19.5101 12.8086C19.4763 12.7965 19.4432 12.7842 19.4094 12.7715C19.2385 12.7067 19.0707 12.6326 18.9059 12.5494C17.1439 11.6584 15.9296 9.83525 15.9296 7.72925V7.72917ZM13.2296 18.5292C13.2296 16.2794 14.8119 14.3948 16.9212 13.9217L20.7262 21.5311C20.8401 21.7598 21.0737 21.9042 21.3295 21.9042C21.5854 21.9042 21.8189 21.7598 21.9337 21.5308L25.7866 13.8244C28.2015 14.0324 30.1045 16.0615 30.1045 18.5292V28.6542H13.2295L13.2296 18.5292ZM40.2296 36.7542H28.7546C28.3821 36.7542 28.0796 37.0559 28.0796 37.4292V40.1292H14.5796V37.4292C14.5796 37.0559 14.277 36.7542 13.9046 36.7542H2.42955V30.0042H40.2296V36.7542Z" stroke="#2094CC" mask="url(#path-1-outside-1_1057_1980)"/>
<path d="M18 32H19.35V33.35H18V32Z" fill="#2094CC"/>
<path d="M20.655 32.0292H22.005V33.3792H20.655V32.0292Z" fill="#2094CC"/>
<path d="M23 32H24.35V33.35H23V32Z" fill="#2094CC"/>
<mask id="path-5-inside-2_1057_1980" fill="white">
<path d="M20.655 23.9292H22.005V25.2792H20.655V23.9292Z"/>
</mask>
<path d="M20.655 23.9292H22.005V25.2792H20.655V23.9292Z" fill="#2094CC" stroke="#2094CC" mask="url(#path-5-inside-2_1057_1980)"/>
</svg>
