<svg width="37" height="37" viewBox="0 0 37 37" fill="none" xmlns="http://www.w3.org/2000/svg">
<path d="M36.6007 10.8803L33.6921 7.97225C33.4915 7.77164 33.166 7.77164 32.9654 7.97225C31.8802 9.05744 30.1135 9.0586 29.0283 7.97225C27.9432 6.88649 27.9432 5.12024 29.0283 4.03505C29.229 3.83443 29.229 3.50894 29.0283 3.30832L26.1204 0.400224C25.5873 -0.133408 24.7184 -0.133408 24.1854 0.400224L0.40122 24.1842C0.142797 24.4426 0 24.786 0 25.1514C0 25.5168 0.142797 25.8608 0.40122 26.1186L3.31325 29.0314C3.50865 29.2268 3.82489 29.2326 4.02723 29.0435C5.12915 28.0144 6.82768 28.0416 7.89375 29.1071C8.95924 30.1726 8.98699 31.8712 7.95677 32.9732C7.76772 33.1755 7.77292 33.4912 7.96891 33.6872L10.8815 36.5999C11.148 36.8664 11.4984 37 11.8487 37C12.1996 37 12.55 36.867 12.8165 36.5999L36.6007 12.8154C37.1331 12.2824 37.1331 11.414 36.6007 10.8803ZM12.0898 35.8732C11.9568 36.0062 11.7406 36.005 11.6088 35.8732L9.02457 33.2894C10.1028 31.7914 9.96056 29.7211 8.62046 28.3804C7.28036 27.0396 5.20951 26.898 3.71158 27.9757L1.12793 25.3919C1.06375 25.3277 1.02791 25.2422 1.02791 25.1514C1.02791 25.0601 1.06375 24.9751 1.12793 24.9103L18.4272 7.61033L29.3897 18.5726L12.0898 35.8732ZM35.874 12.0887L30.1164 17.8465L19.1534 6.88418L24.9109 1.12638C25.0433 0.993984 25.2601 0.993984 25.3925 1.12638L27.9623 3.69568C26.8251 5.18904 26.9378 7.33571 28.3011 8.69899C29.0208 9.41878 29.9782 9.81539 30.9963 9.81539C31.8409 9.81539 32.644 9.54251 33.3036 9.03836L35.8728 11.6071C36.0063 11.7401 36.0063 11.9563 35.874 12.0887ZM20.9843 16.5323L11.0954 26.421L10.3687 25.6943L20.2576 15.8056L20.9843 16.5323ZM18.5134 14.0613L8.62508 23.95L7.89837 23.2233L17.7872 13.334L18.5134 14.0613ZM23.4552 19.0034L13.5669 28.892L12.8402 28.1653L22.7291 18.276L23.4552 19.0034Z" fill="#E0013F"/>
</svg>
